<?xml version="1.0" encoding="UTF-8"?><svg id="Layer_2" xmlns="http://www.w3.org/2000/svg" viewBox="0 0 126.63 75.77"><defs><style>.cls-1{fill:#f2f2f2;}</style></defs><g id="Layer_1-2"><path class="cls-1" d="m50.6,73.58c-3.97,1.42-8.25,2.19-12.72,2.19C16.96,75.77,0,58.81,0,37.89S16.96,0,37.89,0c4.46,0,8.74.77,12.72,2.19-14.67,5.23-25.17,19.23-25.17,35.7s10.5,30.47,25.17,35.7ZM88.75,0c-4.46,0-8.74.77-12.72,2.19,14.67,5.23,25.17,19.23,25.17,35.7s-10.5,30.47-25.17,35.7c3.97,1.42,8.25,2.19,12.72,2.19,20.92,0,37.89-16.96,37.89-37.89S109.67,0,88.75,0Z"/></g></svg>